<svg width="43" height="45" viewBox="0 0 43 45" fill="none" xmlns="http://www.w3.org/2000/svg">
<path d="M21.5195 22.5C23.6081 22.5 25.6111 21.6111 27.088 20.0287C28.5648 18.4464 29.3945 16.3003 29.3945 14.0625C29.3945 11.8247 28.5648 9.67863 27.088 8.09629C25.6111 6.51395 23.6081 5.625 21.5195 5.625C19.431 5.625 17.4279 6.51395 15.9511 8.09629C14.4742 9.67863 13.6445 11.8247 13.6445 14.0625C13.6445 16.3003 14.4742 18.4464 15.9511 20.0287C17.4279 21.6111 19.431 22.5 21.5195 22.5ZM26.7695 14.0625C26.7695 15.5543 26.2164 16.9851 25.2318 18.04C24.2473 19.0949 22.9119 19.6875 21.5195 19.6875C20.1271 19.6875 18.7918 19.0949 17.8072 18.04C16.8227 16.9851 16.2695 15.5543 16.2695 14.0625C16.2695 12.5707 16.8227 11.1399 17.8072 10.085C18.7918 9.03013 20.1271 8.4375 21.5195 8.4375C22.9119 8.4375 24.2473 9.03013 25.2318 10.085C26.2164 11.1399 26.7695 12.5707 26.7695 14.0625ZM37.2695 36.5625C37.2695 39.375 34.6445 39.375 34.6445 39.375H8.39453C8.39453 39.375 5.76953 39.375 5.76953 36.5625C5.76953 33.75 8.39453 25.3125 21.5195 25.3125C34.6445 25.3125 37.2695 33.75 37.2695 36.5625ZM34.6445 36.5513C34.6419 35.8594 34.2403 33.7781 32.4605 31.8713C30.749 30.0375 27.5282 28.125 21.5195 28.125C15.5083 28.125 12.29 30.0375 10.5785 31.8713C8.79878 33.7781 8.39978 35.8594 8.39453 36.5513H34.6445Z" fill="black"/>
</svg>
