<svg width="112" height="98" viewBox="0 0 112 98" fill="none" xmlns="http://www.w3.org/2000/svg">
<path d="M93.3333 64.2499H95V66.4166H82.3333V64.2499H84H87V61.2499V36.7499V33.7499H84H82.3333V31.5833H95V33.7499H93.3333H90.3333V36.7499V61.2499V64.2499H93.3333ZM39 66.4166H35.6667V53.0833V50.0833H32.6667H23.3333H20.3333V53.0833V66.4166H17V36.7499C17 35.5187 17.5556 34.2424 18.7092 33.2329C19.8756 32.2123 21.5339 31.5833 23.3333 31.5833H32.6667C34.4661 31.5833 36.1244 32.2123 37.2908 33.2329C38.4444 34.2424 39 35.5187 39 36.7499V66.4166ZM32.6667 47.9166H35.6667V44.9166V36.7499V33.7499H32.6667H23.3333H20.3333V36.7499V44.9166V47.9166H23.3333H32.6667ZM56 50.0833H53V53.0833V66.4166H49.6667V31.5833H65.3333C67.1328 31.5833 68.7911 32.2123 69.9575 33.2329L71.9213 30.9886L69.9575 33.2329C71.1111 34.2424 71.6667 35.5187 71.6667 36.7499V44.9166C71.6667 46.1478 71.1111 47.4241 69.9575 48.4336C68.7911 49.4542 67.1328 50.0833 65.3333 50.0833H56ZM65.3333 47.9166H68.3333V44.9166V36.7499V33.7499H65.3333H56H53V36.7499V44.9166V47.9166H56H65.3333Z" fill="white" stroke="black" stroke-width="6"/>
</svg>
