<svg width="42" height="41" viewBox="0 0 42 41" fill="none" xmlns="http://www.w3.org/2000/svg">
<path d="M14.6725 4.23532L13.1689 4.67812C11.8278 5.07248 10.6301 5.83267 9.71673 6.8692C8.80336 7.90573 8.21239 9.17544 8.01341 10.5288C7.38971 14.7682 8.78411 19.7251 12.1462 25.4098C15.4999 31.0801 19.1917 34.7332 23.2552 36.3322C24.5608 36.8459 25.9901 36.9827 27.3731 36.7265C28.7561 36.4703 30.0346 35.8318 31.0567 34.8869L32.197 33.8332C32.9358 33.1501 33.3954 32.2284 33.4904 31.2394C33.5854 30.2504 33.3094 29.2614 32.7136 28.4561L29.866 24.6021C29.481 24.0818 28.9389 23.6921 28.3156 23.4877C27.6924 23.2833 27.0192 23.2744 26.3905 23.4623L22.0834 24.7476L21.9721 24.7681C21.4975 24.8358 20.4034 23.8333 19.0384 21.525C17.6104 19.1101 17.3122 17.6977 17.707 17.3328L19.8994 15.3381C20.7 14.609 21.2468 13.6536 21.4629 12.6058C21.6791 11.558 21.5539 10.4704 21.1048 9.49562L19.7188 6.48007C19.3007 5.57173 18.5582 4.84298 17.63 4.42991C16.7017 4.01684 15.6512 3.94767 14.6746 4.23532H14.6725ZM17.8015 7.32057L19.1896 10.3361C19.4595 10.9208 19.535 11.5734 19.4054 12.2022C19.2759 12.8309 18.9478 13.4043 18.4672 13.8416L16.2706 15.8383C14.8636 17.136 15.3298 19.3561 17.2177 22.55C18.9964 25.5553 20.6176 27.0395 22.3585 26.7812L22.6189 26.7279L27.0037 25.4221C27.2133 25.3592 27.4378 25.362 27.6457 25.43C27.8536 25.498 28.0344 25.6279 28.1629 25.8013L31.0105 29.6553C31.3087 30.058 31.4469 30.5528 31.3994 31.0475C31.3519 31.5423 31.1219 32.0033 30.7522 32.3449L29.6119 33.3986C28.8818 34.0731 27.9687 34.5288 26.9811 34.7116C25.9935 34.8944 24.9729 34.7966 24.0406 34.4298C20.4748 33.0276 17.1043 29.6922 13.9648 24.3848C10.819 19.065 9.54641 14.5407 10.0924 10.8199C10.2345 9.85295 10.6566 8.94576 11.3092 8.2052C11.9618 7.46464 12.8176 6.92158 13.7758 6.63997L15.2815 6.19717C15.7697 6.05398 16.2945 6.08899 16.7582 6.29569C17.2219 6.50239 17.5927 6.86666 17.8015 7.32057Z" fill="black"/>
</svg>
