<svg width="46" height="42" viewBox="0 0 46 42" fill="none" xmlns="http://www.w3.org/2000/svg">
<path d="M35.3945 8.40002C36.8864 8.40002 38.3171 8.95315 39.372 9.93771C40.4269 10.9223 41.0195 12.2576 41.0195 13.65V30.45C41.0195 31.8424 40.4269 33.1778 39.372 34.1623C38.3171 35.1469 36.8864 35.7 35.3945 35.7H10.6445C9.15269 35.7 7.72195 35.1469 6.66706 34.1623C5.61216 33.1778 5.01953 31.8424 5.01953 30.45V13.65C5.01953 12.2576 5.61216 10.9223 6.66706 9.93771C7.72195 8.95315 9.15269 8.40002 10.6445 8.40002H35.3945ZM38.7695 16.7181L23.591 25.0551C23.4475 25.1338 23.2871 25.1817 23.1214 25.1955C22.9556 25.2093 22.7887 25.1886 22.6325 25.1349L22.448 25.0551L7.26953 16.7223V30.45C7.26953 31.2855 7.62511 32.0867 8.25805 32.6774C8.89098 33.2682 9.74943 33.6 10.6445 33.6H35.3945C36.2896 33.6 37.1481 33.2682 37.781 32.6774C38.414 32.0867 38.7695 31.2855 38.7695 30.45V16.7181ZM35.3945 10.5H10.6445C9.74943 10.5 8.89098 10.8319 8.25805 11.4226C7.62511 12.0134 7.26953 12.8146 7.26953 13.65V14.2842L23.0195 22.932L38.7695 14.28V13.65C38.7695 12.8146 38.414 12.0134 37.781 11.4226C37.1481 10.8319 36.2896 10.5 35.3945 10.5Z" fill="black"/>
</svg>
