<svg width="103" height="91" viewBox="0 0 103 91" fill="none" xmlns="http://www.w3.org/2000/svg">
<path d="M44.28 42.483C44.28 42.483 44.28 42.4829 44.28 42.4829M44.28 42.483C44.28 42.483 44.28 42.4829 44.28 42.4829M44.28 42.483C44.2805 42.4824 44.2811 42.4818 44.2816 42.4812M44.28 42.483C44.2806 42.4836 44.2812 42.4843 44.2817 42.4849L44.28 42.4829M44.28 42.4829L44.2816 42.4812M44.2816 42.4812L44.2823 42.4804L44.2816 42.4812ZM58.7216 25.767C58.7216 25.767 58.7216 25.7671 58.7216 25.7671M58.7216 25.767C58.7216 25.767 58.7216 25.7671 58.7216 25.7671M58.7216 25.767C58.721 25.7677 58.7204 25.7684 58.7198 25.7691M58.7216 25.767C58.7208 25.7662 58.7201 25.7653 58.7193 25.7645L58.7216 25.7671M58.7216 25.7671L58.7198 25.7691M58.7198 25.7691L58.7193 25.7696L58.7198 25.7691ZM69.1207 34.1259C69.1212 34.1265 69.1218 34.1271 69.1223 34.1277L69.1207 34.1259ZM69.1207 34.1259L69.123 34.1233L69.1207 34.1259ZM58.72 42.4829C58.7205 42.4835 58.7211 42.4841 58.7216 42.4847M58.72 42.4829C58.7198 42.4827 58.7195 42.4824 58.7193 42.4822L58.7216 42.4847M58.72 42.4829L58.7216 42.4847M58.72 42.4829L58.7216 42.4847M58.7216 42.4847L58.7201 42.4864M58.7216 42.4847C58.7211 42.4853 58.7206 42.4858 58.7201 42.4864M58.7201 42.4864L58.7196 42.487L58.7193 42.4873C58.7196 42.487 58.7199 42.4867 58.7201 42.4864ZM38.5333 32.1117L36.7103 34.1256L38.5339 36.1389L44.2587 42.4595C44.2598 42.4661 44.2605 42.4741 44.2605 42.483C44.2605 42.4918 44.2598 42.4998 44.2587 42.5065L42.8649 44.0458L33.9006 34.1476C33.8995 34.141 33.8988 34.1329 33.8988 34.1241C33.8988 34.1153 33.8995 34.1073 33.9006 34.1006L42.8633 24.2025L44.2571 25.7418C44.2576 25.7452 44.2581 25.7489 44.2584 25.7529C44.2587 25.7568 44.2589 25.7609 44.2589 25.7653C44.2589 25.7741 44.2582 25.7821 44.2571 25.7888L38.5333 32.1117ZM43.2675 44.4904L43.2671 44.4899C43.2673 44.4901 43.2675 44.4903 43.2677 44.4906L43.2675 44.4904ZM44.2807 25.7627L44.2804 25.763L44.2807 25.7627ZM64.4667 36.1383L66.2895 34.1247L64.4664 32.1114L58.7429 25.7906C58.7424 25.7871 58.7419 25.7833 58.7416 25.7793C58.7413 25.7754 58.7411 25.7713 58.7411 25.767C58.7411 25.7582 58.7418 25.7502 58.7429 25.7435L60.1367 24.2043L69.0994 34.1024C69.0997 34.1042 69.1 34.1061 69.1002 34.1081C69.1008 34.1134 69.1012 34.1194 69.1012 34.1259C69.1012 34.1307 69.101 34.1353 69.1006 34.1395C69.1003 34.1431 69.0999 34.1464 69.0994 34.1494L60.1367 44.0475L58.7429 42.5083C58.7425 42.5055 58.7421 42.5026 58.7418 42.4994C58.7414 42.4949 58.7411 42.49 58.7411 42.4847C58.7411 42.4759 58.7418 42.4679 58.7429 42.4612L64.4667 36.1383ZM82.4 59.875H85.4V56.875V11.375V8.375H82.4H20.6H17.6V11.375V56.875V59.875H20.6H82.4ZM3 76.9375H38.6387C39.0304 77.9585 39.6057 78.9058 40.2978 79.7086C41.6666 81.2963 43.7688 82.625 46.35 82.625H56.135C58.3624 82.625 60.4464 81.7786 61.9803 80.176C62.8552 79.2619 63.497 78.1605 63.9004 76.9375H100V79.625C100 84.5116 96.4349 88 92.7 88H10.3C6.56512 88 3 84.5116 3 79.625V76.9375ZM84.975 3C87.2936 3 89.7 5.20876 89.7 8.53125V65.25H13.3V8.53125C13.3 5.20876 15.7064 3 18.025 3H84.975Z" fill="white" stroke="black" stroke-width="6"/>
</svg>
