<svg width="62" height="60" viewBox="0 0 62 60" fill="none" xmlns="http://www.w3.org/2000/svg">
<path d="M30.9727 0.216311C14.0674 0.209475 0.375 13.895 0.375 30.7866C0.375 44.144 8.94043 55.4985 20.8691 59.6685C22.4756 60.0718 22.2295 58.9302 22.2295 58.1509V52.853C12.9531 53.9399 12.5771 47.8013 11.9551 46.7759C10.6973 44.6294 7.72363 44.0825 8.6123 43.0571C10.7246 41.9702 12.8779 43.3306 15.373 47.0151C17.1777 49.688 20.6982 49.2368 22.4824 48.7925C22.8721 47.186 23.7061 45.7505 24.8545 44.6362C15.2432 42.9136 11.2373 37.0483 11.2373 30.0757C11.2373 26.6919 12.3516 23.5815 14.5391 21.0728C13.1445 16.937 14.6689 13.396 14.874 12.8696C18.8457 12.5142 22.9746 15.7134 23.2959 15.9663C25.5518 15.3579 28.1289 15.0366 31.0137 15.0366C33.9121 15.0366 36.4961 15.3716 38.7725 15.9868C39.5449 15.3989 43.373 12.6509 47.0645 12.9858C47.2627 13.5122 48.7529 16.9712 47.4404 21.0522C49.6553 23.5679 50.7832 26.7056 50.7832 30.0962C50.7832 37.0825 46.75 42.9546 37.1113 44.6499C37.9369 45.4618 38.5924 46.4301 39.0396 47.4981C39.4868 48.5662 39.7167 49.7127 39.7158 50.8706V58.561C39.7705 59.1763 39.7158 59.7847 40.7412 59.7847C52.8477 55.7036 61.5635 44.2671 61.5635 30.7935C61.5635 13.895 47.8643 0.216311 30.9727 0.216311Z" fill="#FAFAFA"/>
</svg>
