<svg width="43" height="41" viewBox="0 0 43 41" fill="none" xmlns="http://www.w3.org/2000/svg">
<path d="M9.2749 37.5833H33.7749C35.7052 37.5833 37.2749 36.051 37.2749 34.1667V18.7917C37.2751 18.5673 37.23 18.3451 37.142 18.1378C37.054 17.9306 36.9249 17.7423 36.7621 17.5839L22.7622 3.91721C22.5998 3.75842 22.4069 3.63245 22.1946 3.54651C21.9823 3.46056 21.7547 3.41632 21.5249 3.41632C21.2951 3.41632 21.0675 3.46056 20.8552 3.54651C20.6429 3.63245 20.45 3.75842 20.2877 3.91721L6.28765 17.5839C6.12491 17.7423 5.99583 17.9306 5.90784 18.1378C5.81984 18.3451 5.77467 18.5673 5.7749 18.7917V34.1667C5.7749 36.051 7.34465 37.5833 9.2749 37.5833ZM18.0249 34.1667V25.625H25.0249V34.1667H18.0249ZM9.2749 19.4989L21.5249 7.54058L33.7749 19.4989L33.7767 34.1667H28.5249V25.625C28.5249 23.7407 26.9552 22.2083 25.0249 22.2083H18.0249C16.0947 22.2083 14.5249 23.7407 14.5249 25.625V34.1667H9.2749V19.4989Z" fill="black"/>
</svg>
