<svg width="70" height="70" viewBox="0 0 70 70" fill="none" xmlns="http://www.w3.org/2000/svg">
<path d="M35 0C15.6698 0 0 15.6698 0 35C0 54.3302 15.6698 70 35 70C54.3302 70 70 54.3302 70 35C70 15.6698 54.3302 0 35 0ZM26.4323 49.5068H19.3448V26.6984H26.4323V49.5068ZM22.8448 23.8984C20.6062 23.8984 19.1589 22.3125 19.1589 20.351C19.1589 18.3495 20.65 16.8109 22.9359 16.8109C25.2219 16.8109 26.6219 18.3495 26.6656 20.351C26.6656 22.3125 25.2219 23.8984 22.8448 23.8984ZM52.3177 49.5068H45.2302V36.8667C45.2302 33.9245 44.2021 31.9266 41.6391 31.9266C39.6813 31.9266 38.5182 33.2792 38.0042 34.5807C37.8146 35.0438 37.7672 35.7 37.7672 36.3526V49.5031H30.676V33.9719C30.676 31.1245 30.5849 28.7437 30.4901 26.6948H36.6479L36.9724 29.863H37.1146C38.0479 28.3755 40.3339 26.1807 44.1583 26.1807C48.8214 26.1807 52.3177 29.3052 52.3177 36.0208V49.5068Z" fill="#0E76A8"/>
</svg>
