<svg width="52" height="46" viewBox="0 0 52 46" fill="none" xmlns="http://www.w3.org/2000/svg">
<path d="M34.6764 9.1999C34.2851 9.92719 34.0204 10.7026 33.8912 11.4999L13.0392 11.5022C11.1672 11.5206 10.4652 11.6563 9.75279 11.9967C9.14439 12.2819 8.6868 12.689 8.3618 13.2272C8.042 13.7562 7.8808 14.2737 7.8236 15.3961L24.7002 22.8619L35.9764 17.8709C36.59 18.508 37.3128 19.0577 38.1214 19.4993L25.2826 25.1757C24.9925 25.3042 24.6587 25.332 24.3466 25.2539L24.1178 25.1757L7.80279 17.9629V29.8654C7.8236 31.5214 7.977 32.1424 8.3618 32.7726C8.6842 33.3108 9.14439 33.7156 9.75279 34.0031C10.408 34.3136 11.0528 34.4539 12.5946 34.4907L13.5306 34.4999H35.8672L36.8032 34.4907C38.3502 34.4539 38.9924 34.3136 39.6502 34.0031C40.256 33.7179 40.7162 33.3108 41.0386 32.7726C41.3896 32.193 41.5482 31.6226 41.5898 30.2587L41.6002 29.4307V20.6148C42.4625 20.724 43.3379 20.724 44.2002 20.6148V29.4261C44.2002 31.9883 43.8986 32.9198 43.3318 33.8559C42.7776 34.7819 41.9216 35.5392 40.8748 36.0294C39.8166 36.5308 38.7636 36.7976 35.8672 36.7976H13.5332C10.6342 36.7976 9.5838 36.5308 8.5256 36.0294C7.47879 35.5392 6.62275 34.7819 6.0686 33.8559C5.5408 32.9819 5.2418 32.1125 5.2054 29.9183L5.2002 16.5714C5.2002 14.0069 5.5018 13.0777 6.0686 12.1416C6.6354 11.2055 7.4674 10.4695 8.5256 9.9681C9.5136 9.5012 10.4964 9.2367 12.9768 9.2045L34.6764 9.1999ZM42.9002 6.8999C44.6241 6.8999 46.2774 7.5057 47.4964 8.58404C48.7154 9.66237 49.4002 11.1249 49.4002 12.6499C49.4002 14.1749 48.7154 15.6374 47.4964 16.7158C46.2774 17.7941 44.6241 18.3999 42.9002 18.3999C41.1763 18.3999 39.523 17.7941 38.304 16.7158C37.085 15.6374 36.4002 14.1749 36.4002 12.6499C36.4002 11.1249 37.085 9.66237 38.304 8.58404C39.523 7.5057 41.1763 6.8999 42.9002 6.8999Z" fill="black"/>
</svg>
