<svg width="86" height="81" viewBox="0 0 86 81" fill="none" xmlns="http://www.w3.org/2000/svg">
<mask id="path-1-inside-1" fill="white">
<path d="M26.875 75.9375H10.75C9.32446 75.9375 7.95731 75.4041 6.9493 74.4547C5.94129 73.5053 5.375 72.2177 5.375 70.875V40.5C5.375 39.1573 5.94129 37.8697 6.9493 36.9203C7.95731 35.9709 9.32446 35.4375 10.75 35.4375H26.875C28.3005 35.4375 29.6677 35.9709 30.6757 36.9203C31.6837 37.8697 32.25 39.1573 32.25 40.5V70.875C32.25 72.2177 31.6837 73.5053 30.6757 74.4547C29.6677 75.4041 28.3005 75.9375 26.875 75.9375ZM10.75 40.5V70.875H26.875V40.5H10.75Z"/>
</mask>
<path d="M26.875 75.9375H10.75C9.32446 75.9375 7.95731 75.4041 6.9493 74.4547C5.94129 73.5053 5.375 72.2177 5.375 70.875V40.5C5.375 39.1573 5.94129 37.8697 6.9493 36.9203C7.95731 35.9709 9.32446 35.4375 10.75 35.4375H26.875C28.3005 35.4375 29.6677 35.9709 30.6757 36.9203C31.6837 37.8697 32.25 39.1573 32.25 40.5V70.875C32.25 72.2177 31.6837 73.5053 30.6757 74.4547C29.6677 75.4041 28.3005 75.9375 26.875 75.9375ZM10.75 40.5V70.875H26.875V40.5H10.75Z" fill="white"/>
<path d="M5.375 70.875H-0.625H5.375ZM10.75 35.4375V41.4375V35.4375ZM10.75 40.5V34.5H4.75V40.5H10.75ZM10.75 70.875H4.75V76.875H10.75V70.875ZM26.875 70.875V76.875H32.875V70.875H26.875ZM26.875 40.5H32.875V34.5H26.875V40.5ZM26.875 69.9375H10.75V81.9375H26.875V69.9375ZM10.75 69.9375C10.7842 69.9375 10.8255 69.9436 10.8738 69.9625C10.9221 69.9813 10.9898 70.018 11.0631 70.087L2.83553 78.8224C4.99254 80.854 7.84526 81.9375 10.75 81.9375V69.9375ZM11.0631 70.087C11.2163 70.2313 11.375 70.5064 11.375 70.875H-0.625C-0.625 73.9289 0.666335 76.7794 2.83553 78.8224L11.0631 70.087ZM11.375 70.875V40.5H-0.625V70.875H11.375ZM11.375 40.5C11.375 40.8686 11.2163 41.1437 11.0631 41.288L2.83553 32.5526C0.666335 34.5956 -0.625 37.4461 -0.625 40.5H11.375ZM11.0631 41.288C10.9898 41.357 10.9221 41.3937 10.8738 41.4125C10.8255 41.4314 10.7842 41.4375 10.75 41.4375V29.4375C7.84526 29.4375 4.99254 30.521 2.83553 32.5526L11.0631 41.288ZM10.75 41.4375H26.875V29.4375H10.75V41.4375ZM26.875 41.4375C26.8408 41.4375 26.7995 41.4314 26.7512 41.4125C26.7029 41.3937 26.6352 41.357 26.5619 41.288L34.7895 32.5526C32.6325 30.521 29.7797 29.4375 26.875 29.4375V41.4375ZM26.5619 41.288C26.4088 41.1437 26.25 40.8686 26.25 40.5H38.25C38.25 37.4461 36.9587 34.5956 34.7895 32.5526L26.5619 41.288ZM26.25 40.5V70.875H38.25V40.5H26.25ZM26.25 70.875C26.25 70.5064 26.4088 70.2313 26.5619 70.087L34.7895 78.8224C36.9587 76.7794 38.25 73.9289 38.25 70.875H26.25ZM26.5619 70.087C26.6352 70.018 26.7029 69.9813 26.7512 69.9625C26.7995 69.9436 26.8408 69.9375 26.875 69.9375V81.9375C29.7797 81.9375 32.6325 80.854 34.7895 78.8224L26.5619 70.087ZM4.75 40.5V70.875H16.75V40.5H4.75ZM10.75 76.875H26.875V64.875H10.75V76.875ZM32.875 70.875V40.5H20.875V70.875H32.875ZM26.875 34.5H10.75V46.5H26.875V34.5Z" fill="black" mask="url(#path-1-inside-1)"/>
<mask id="path-3-inside-2" fill="white">
<path d="M75.25 10.125H16.125C14.6995 10.125 13.3323 10.6584 12.3243 11.6078C11.3163 12.5572 10.75 13.8448 10.75 15.1875V30.375H16.125V15.1875H75.25V50.625H37.625V55.6875H43V65.8125H37.625V70.875H61.8125V65.8125H48.375V55.6875H75.25C76.6755 55.6875 78.0427 55.1541 79.0507 54.2047C80.0587 53.2553 80.625 51.9677 80.625 50.625V15.1875C80.625 13.8448 80.0587 12.5572 79.0507 11.6078C78.0427 10.6584 76.6755 10.125 75.25 10.125Z"/>
</mask>
<path d="M75.25 10.125H16.125C14.6995 10.125 13.3323 10.6584 12.3243 11.6078C11.3163 12.5572 10.75 13.8448 10.75 15.1875V30.375H16.125V15.1875H75.25V50.625H37.625V55.6875H43V65.8125H37.625V70.875H61.8125V65.8125H48.375V55.6875H75.25C76.6755 55.6875 78.0427 55.1541 79.0507 54.2047C80.0587 53.2553 80.625 51.9677 80.625 50.625V15.1875C80.625 13.8448 80.0587 12.5572 79.0507 11.6078C78.0427 10.6584 76.6755 10.125 75.25 10.125Z" fill="white"/>
<path d="M16.125 10.125V4.125V10.125ZM10.75 15.1875H4.75H10.75ZM10.75 30.375H4.75V36.375H10.75V30.375ZM16.125 30.375V36.375H22.125V30.375H16.125ZM16.125 15.1875V9.1875H10.125V15.1875H16.125ZM75.25 15.1875H81.25V9.1875H75.25V15.1875ZM75.25 50.625V56.625H81.25V50.625H75.25ZM37.625 50.625V44.625H31.625V50.625H37.625ZM37.625 55.6875H31.625V61.6875H37.625V55.6875ZM43 55.6875H49V49.6875H43V55.6875ZM43 65.8125V71.8125H49V65.8125H43ZM37.625 65.8125V59.8125H31.625V65.8125H37.625ZM37.625 70.875H31.625V76.875H37.625V70.875ZM61.8125 70.875V76.875H67.8125V70.875H61.8125ZM61.8125 65.8125H67.8125V59.8125H61.8125V65.8125ZM48.375 65.8125H42.375V71.8125H48.375V65.8125ZM48.375 55.6875V49.6875H42.375V55.6875H48.375ZM75.25 4.125H16.125V16.125H75.25V4.125ZM16.125 4.125C13.2203 4.125 10.3675 5.20846 8.21053 7.24006L16.4381 15.9755C16.3648 16.0445 16.2971 16.0812 16.2488 16.1C16.2005 16.1189 16.1592 16.125 16.125 16.125V4.125ZM8.21053 7.24006C6.04133 9.28314 4.75 12.1336 4.75 15.1875H16.75C16.75 15.5561 16.5913 15.8312 16.4381 15.9755L8.21053 7.24006ZM4.75 15.1875V30.375H16.75V15.1875H4.75ZM10.75 36.375H16.125V24.375H10.75V36.375ZM22.125 30.375V15.1875H10.125V30.375H22.125ZM16.125 21.1875H75.25V9.1875H16.125V21.1875ZM69.25 15.1875V50.625H81.25V15.1875H69.25ZM75.25 44.625H37.625V56.625H75.25V44.625ZM31.625 50.625V55.6875H43.625V50.625H31.625ZM37.625 61.6875H43V49.6875H37.625V61.6875ZM37 55.6875V65.8125H49V55.6875H37ZM43 59.8125H37.625V71.8125H43V59.8125ZM31.625 65.8125V70.875H43.625V65.8125H31.625ZM37.625 76.875H61.8125V64.875H37.625V76.875ZM67.8125 70.875V65.8125H55.8125V70.875H67.8125ZM61.8125 59.8125H48.375V71.8125H61.8125V59.8125ZM54.375 65.8125V55.6875H42.375V65.8125H54.375ZM48.375 61.6875H75.25V49.6875H48.375V61.6875ZM75.25 61.6875C78.1547 61.6875 81.0075 60.604 83.1645 58.5724L74.9369 49.837C75.0102 49.768 75.0779 49.7313 75.1262 49.7125C75.1745 49.6936 75.2158 49.6875 75.25 49.6875V61.6875ZM83.1645 58.5724C85.3337 56.5294 86.625 53.6789 86.625 50.625H74.625C74.625 50.2564 74.7838 49.9813 74.9369 49.837L83.1645 58.5724ZM86.625 50.625V15.1875H74.625V50.625H86.625ZM86.625 15.1875C86.625 12.1336 85.3337 9.28314 83.1645 7.24006L74.9369 15.9755C74.7838 15.8312 74.625 15.5561 74.625 15.1875H86.625ZM83.1645 7.24006C81.0075 5.20846 78.1547 4.125 75.25 4.125V16.125C75.2158 16.125 75.1745 16.1189 75.1262 16.1C75.0779 16.0812 75.0102 16.0445 74.9369 15.9755L83.1645 7.24006Z" fill="black" mask="url(#path-3-inside-2)"/>
</svg>
