<svg width="92" height="89" viewBox="0 0 92 89" fill="none" xmlns="http://www.w3.org/2000/svg">
<g clip-path="url(#clip0)">
<path d="M84.3333 32.0153V75.4028C84.3333 78.812 81.4686 81.5833 77.9444 81.5833H14.0556C10.5314 81.5833 7.66667 78.812 7.66667 75.4028V13.5972C7.66667 10.188 10.5314 7.41667 14.0556 7.41667H77.9444C79.7384 7.41667 81.3561 8.14103 82.5189 9.29803L87.9392 4.05444C85.3888 1.55503 81.8519 0 77.9444 0H14.0556C6.30711 0 0 6.10144 0 13.5972V75.4028C0 82.8986 6.30711 89 14.0556 89H77.9444C85.6929 89 92 82.8986 92 75.4028V24.5986L84.3333 32.0153Z" fill="#008282"/>
<path d="M26.8335 50.6806L39.6113 63.0417L90.7223 13.5972" stroke="#008282" stroke-width="9" stroke-miterlimit="10" stroke-linecap="round" stroke-linejoin="round"/>
</g>
<defs>
<clipPath id="clip0">
<rect width="92" height="89" fill="white"/>
</clipPath>
</defs>
</svg>
