<svg width="70" height="70" viewBox="0 0 70 70" fill="none" xmlns="http://www.w3.org/2000/svg">
<path d="M35 0C15.6719 0 0 15.6719 0 35C0 54.3281 15.6719 70 35 70C54.3281 70 70 54.3281 70 35C70 15.6719 54.3281 0 35 0ZM51.8203 26.3828C51.8438 26.75 51.8438 27.1328 51.8438 27.5078C51.8438 38.9766 43.1094 52.1875 27.1484 52.1875C22.2266 52.1875 17.6641 50.7578 13.8203 48.2969C14.5234 48.375 15.1953 48.4062 15.9141 48.4062C19.9766 48.4062 23.7109 47.0312 26.6875 44.7031C22.875 44.625 19.6719 42.125 18.5781 38.6875C19.9141 38.8828 21.1172 38.8828 22.4922 38.5312C20.5291 38.1324 18.7646 37.0663 17.4986 35.5139C16.2325 33.9616 15.5429 32.0188 15.5469 30.0156V29.9062C16.6953 30.5547 18.0469 30.9531 19.4609 31.0078C18.2722 30.2156 17.2973 29.1423 16.6227 27.883C15.9482 26.6238 15.5947 25.2176 15.5938 23.7891C15.5938 22.1719 16.0156 20.6953 16.7734 19.4141C18.9524 22.0964 21.6713 24.2902 24.7536 25.8529C27.8359 27.4155 31.2126 28.3121 34.6641 28.4844C33.4375 22.5859 37.8438 17.8125 43.1406 17.8125C45.6406 17.8125 47.8906 18.8594 49.4766 20.5469C51.4375 20.1797 53.3125 19.4453 54.9844 18.4609C54.3359 20.4688 52.9766 22.1641 51.1719 23.2344C52.9219 23.0469 54.6094 22.5625 56.1719 21.8828C54.9922 23.6172 53.5156 25.1563 51.8203 26.3828Z" fill="#1DA1F2"/>
</svg>
